<svg width="225" height="135" viewBox="0 0 225 135" fill="none" xmlns="http://www.w3.org/2000/svg">
<path d="M154.36 53.3009C156.717 48.2105 155.812 42.7917 154.461 39.7148C154.108 38.9081 153.265 38.3653 152.307 38.3278C148.671 38.1851 142.722 39.203 138.199 42.916C136.672 42.1046 134.901 41.6319 133.008 41.6319C132.721 41.6319 132.439 41.6494 132.157 41.6709C131.909 40.2505 131.517 38.9854 131.073 37.9747C130.719 37.168 129.876 36.6252 128.919 36.5877C124.518 36.4068 116.745 37.9364 112.197 43.8742C110.06 39.7586 106.305 36.9217 103.397 35.5092V27.3332C103.397 21.1651 99.4395 15.5398 93.3924 12.8822V7.72088H93.518C94.1889 7.72088 94.7334 7.22747 94.7334 6.61767V1.10321C94.7316 0.493416 94.188 0 93.5171 0H77.7205C77.0496 0 76.5051 0.493416 76.5051 1.10321V6.61767C76.5051 7.22747 77.0496 7.72088 77.7205 7.72088H78.0042V12.8822C71.957 15.539 68 21.1643 68 27.3332V72.7936C68 74.0108 69.0881 75 70.4308 75H85.5837H100.967H148.839C149.984 75 150.972 74.2762 151.215 73.2607L155.433 55.6133C155.589 54.9629 155.411 54.2821 154.949 53.7608C154.781 53.5735 154.578 53.4276 154.36 53.3009ZM129.823 46.9797C130.559 46.4983 131.43 46.1778 132.376 46.079C132.584 46.0575 132.793 46.0431 133.007 46.0431C133.72 46.0431 134.399 46.1706 135.023 46.397C135.789 46.6744 136.469 47.1041 137.018 47.6445C137.702 48.3173 138.185 49.1582 138.378 50.0941C138.438 50.3898 138.474 50.6935 138.474 51.006C138.474 51.6915 138.32 52.3451 138.042 52.9398H137.358H134.861H132.415H130.243H127.97C127.894 52.7772 127.829 52.609 127.772 52.4376C127.621 51.984 127.538 51.5042 127.538 51.006C127.539 49.3488 128.443 47.8813 129.823 46.9797ZM113.84 51.6979C115.628 43.0372 123.532 41.3688 127.04 41.0595C127.192 41.6223 127.343 42.3246 127.442 43.1209C124.582 44.79 122.678 47.6979 122.678 51.0068C122.678 51.67 122.757 52.3164 122.902 52.9406H119.179L124.238 45.4222C124.587 44.9024 124.407 44.2233 123.834 43.906C123.262 43.5872 122.514 43.7522 122.164 44.2719L116.33 52.9406H113.937L113.727 52.8051C113.778 52.4304 113.816 52.0614 113.84 51.6979ZM100.966 41.3074C101.381 40.7893 101.787 40.3453 102.142 39.9874C102.517 40.2146 102.943 40.4928 103.396 40.822C106.182 42.8459 109.954 46.8123 108.796 52.9406H105.071L103.396 45.1743L103.345 44.9399C103.217 44.3421 102.578 43.9499 101.919 44.0694C101.428 44.1571 101.066 44.5015 100.966 44.9176C100.932 45.0611 100.927 45.2117 100.96 45.3648L100.966 45.3927L102.594 52.9406H100.966H100.24H98.7413C98.6676 52.7453 98.5982 52.5516 98.5358 52.3595C98.4147 51.9864 98.311 51.6166 98.2329 51.2539C97.9782 50.0741 97.944 48.9526 98.0599 47.9012C98.1451 47.1272 98.3102 46.3922 98.5358 45.6996C98.6632 45.3106 98.8054 44.9327 98.9635 44.5708C99.5247 43.2883 100.26 42.1882 100.966 41.3074ZM80.7502 53.0195C80.254 53.1375 79.8035 53.3909 79.4742 53.7608C79.0132 54.2821 78.8349 54.9629 78.9912 55.6133L82.5698 70.5872H72.8607V27.3332C72.8607 22.4787 76.2425 18.089 81.2736 16.4079C82.229 16.0898 82.8648 15.2616 82.8648 14.3378V7.72088H88.5308V14.3386C88.5308 15.2624 89.1666 16.0898 90.1221 16.4087C95.154 18.089 98.5358 22.4795 98.5358 27.334V36.999C97.3257 38.2019 96.1016 39.7403 95.1233 41.5426C93.7252 40.9001 92.1506 40.5294 90.4795 40.5294C84.7845 40.5294 80.1513 44.7342 80.1513 49.9036C80.1504 50.9964 80.3691 52.043 80.7502 53.0195ZM93.669 52.9406H86.1641C85.444 52.0996 85.0111 51.0474 85.0111 49.9028C85.0111 47.1655 87.4638 44.9391 90.4795 44.9391C91.5983 44.9391 92.6389 45.2468 93.5074 45.7729C93.0025 47.9721 92.9638 50.389 93.669 52.9406ZM149.594 59.2298L146.879 70.5872H103.396H100.966H98.535H87.5429L84.4087 57.4706L84.3806 57.3526H95.6142H96.7251H98.5358H100.694H100.967H103.397H103.614H105.735H108.898H112.172H119.143H120.787H122.344H125.426H126.381H129.34H136.673H140.586H141.474H144.224H148.268H150.042L149.594 59.2298ZM149.131 52.9406H143.112C143.257 52.3164 143.336 51.67 143.336 51.0068C143.336 49.163 142.738 47.4452 141.72 45.9937C144.705 43.6621 148.343 42.9846 150.431 42.8004C151.009 44.955 151.604 49.1224 149.131 52.9406Z" fill="#00AF91"/>
<line y1="46.5" x2="50" y2="46.5" stroke="#00AF91" stroke-width="3"/>
<line x1="175" y1="46.5" x2="225" y2="46.5" stroke="#00AF91" stroke-width="3"/>
<path d="M30.24 126L30.198 108.36L21.546 122.892H18.48L9.87 108.738V126H3.486V96.6H9.114L20.118 114.87L30.954 96.6H36.54L36.624 126H30.24ZM63.4653 103.404L53.2593 127.386C52.2233 129.99 50.9353 131.824 49.3953 132.888C47.8833 133.952 46.0493 134.484 43.8933 134.484C42.7173 134.484 41.5553 134.302 40.4073 133.938C39.2593 133.574 38.3213 133.07 37.5933 132.426L39.9873 127.764C40.4913 128.212 41.0653 128.562 41.7093 128.814C42.3813 129.066 43.0393 129.192 43.6833 129.192C44.5793 129.192 45.3073 128.968 45.8673 128.52C46.4273 128.1 46.9313 127.386 47.3793 126.378L47.4633 126.168L37.6773 103.404H44.4393L50.7813 118.734L57.1653 103.404H63.4653ZM71.3048 102.06V109.83H84.9128V115.29H71.3048V126H64.5008V96.6H86.7188V102.06H71.3048ZM98.9408 126.336C96.5608 126.336 94.4188 125.846 92.5148 124.866C90.6388 123.858 89.1688 122.472 88.1048 120.708C87.0408 118.944 86.5088 116.942 86.5088 114.702C86.5088 112.462 87.0408 110.46 88.1048 108.696C89.1688 106.932 90.6388 105.56 92.5148 104.58C94.4188 103.572 96.5608 103.068 98.9408 103.068C101.321 103.068 103.449 103.572 105.325 104.58C107.201 105.56 108.671 106.932 109.735 108.696C110.799 110.46 111.331 112.462 111.331 114.702C111.331 116.942 110.799 118.944 109.735 120.708C108.671 122.472 107.201 123.858 105.325 124.866C103.449 125.846 101.321 126.336 98.9408 126.336ZM98.9408 120.96C100.621 120.96 101.993 120.4 103.057 119.28C104.149 118.132 104.695 116.606 104.695 114.702C104.695 112.798 104.149 111.286 103.057 110.166C101.993 109.018 100.621 108.444 98.9408 108.444C97.2608 108.444 95.8748 109.018 94.7828 110.166C93.6908 111.286 93.1448 112.798 93.1448 114.702C93.1448 116.606 93.6908 118.132 94.7828 119.28C95.8748 120.4 97.2608 120.96 98.9408 120.96ZM124.362 126.336C121.982 126.336 119.84 125.846 117.936 124.866C116.06 123.858 114.59 122.472 113.526 120.708C112.462 118.944 111.93 116.942 111.93 114.702C111.93 112.462 112.462 110.46 113.526 108.696C114.59 106.932 116.06 105.56 117.936 104.58C119.84 103.572 121.982 103.068 124.362 103.068C126.742 103.068 128.87 103.572 130.746 104.58C132.622 105.56 134.092 106.932 135.156 108.696C136.22 110.46 136.752 112.462 136.752 114.702C136.752 116.942 136.22 118.944 135.156 120.708C134.092 122.472 132.622 123.858 130.746 124.866C128.87 125.846 126.742 126.336 124.362 126.336ZM124.362 120.96C126.042 120.96 127.414 120.4 128.478 119.28C129.57 118.132 130.116 116.606 130.116 114.702C130.116 112.798 129.57 111.286 128.478 110.166C127.414 109.018 126.042 108.444 124.362 108.444C122.682 108.444 121.296 109.018 120.204 110.166C119.112 111.286 118.566 112.798 118.566 114.702C118.566 116.606 119.112 118.132 120.204 119.28C121.296 120.4 122.682 120.96 124.362 120.96ZM162.048 94.836V126H155.79V123.396C154.166 125.356 151.814 126.336 148.734 126.336C146.606 126.336 144.674 125.86 142.938 124.908C141.23 123.956 139.886 122.598 138.906 120.834C137.926 119.07 137.436 117.026 137.436 114.702C137.436 112.378 137.926 110.334 138.906 108.57C139.886 106.806 141.23 105.448 142.938 104.496C144.674 103.544 146.606 103.068 148.734 103.068C151.618 103.068 153.872 103.978 155.496 105.798V94.836H162.048ZM149.868 120.96C151.52 120.96 152.892 120.4 153.984 119.28C155.076 118.132 155.622 116.606 155.622 114.702C155.622 112.798 155.076 111.286 153.984 110.166C152.892 109.018 151.52 108.444 149.868 108.444C148.188 108.444 146.802 109.018 145.71 110.166C144.618 111.286 144.072 112.798 144.072 114.702C144.072 116.606 144.618 118.132 145.71 119.28C146.802 120.4 148.188 120.96 149.868 120.96ZM166.012 103.404H172.564V126H166.012V103.404ZM169.288 100.254C168.084 100.254 167.104 99.904 166.348 99.204C165.592 98.504 165.214 97.636 165.214 96.6C165.214 95.564 165.592 94.696 166.348 93.996C167.104 93.296 168.084 92.946 169.288 92.946C170.492 92.946 171.472 93.282 172.228 93.954C172.984 94.626 173.362 95.466 173.362 96.474C173.362 97.566 172.984 98.476 172.228 99.204C171.472 99.904 170.492 100.254 169.288 100.254ZM198.679 114.786C198.679 114.87 198.637 115.458 198.553 116.55H181.459C181.767 117.95 182.495 119.056 183.643 119.868C184.791 120.68 186.219 121.086 187.927 121.086C189.103 121.086 190.139 120.918 191.035 120.582C191.959 120.218 192.813 119.658 193.597 118.902L197.083 122.682C194.955 125.118 191.847 126.336 187.759 126.336C185.211 126.336 182.957 125.846 180.997 124.866C179.037 123.858 177.525 122.472 176.461 120.708C175.397 118.944 174.865 116.942 174.865 114.702C174.865 112.49 175.383 110.502 176.419 108.738C177.483 106.946 178.925 105.56 180.745 104.58C182.593 103.572 184.651 103.068 186.919 103.068C189.131 103.068 191.133 103.544 192.925 104.496C194.717 105.448 196.117 106.82 197.125 108.612C198.161 110.376 198.679 112.434 198.679 114.786ZM186.961 108.024C185.477 108.024 184.231 108.444 183.223 109.284C182.215 110.124 181.599 111.272 181.375 112.728H192.505C192.281 111.3 191.665 110.166 190.657 109.326C189.649 108.458 188.417 108.024 186.961 108.024ZM208.543 126.336C206.667 126.336 204.833 126.112 203.041 125.664C201.249 125.188 199.821 124.6 198.757 123.9L200.941 119.196C201.949 119.84 203.167 120.372 204.595 120.792C206.023 121.184 207.423 121.38 208.795 121.38C211.567 121.38 212.953 120.694 212.953 119.322C212.953 118.678 212.575 118.216 211.819 117.936C211.063 117.656 209.901 117.418 208.333 117.222C206.485 116.942 204.959 116.62 203.755 116.256C202.551 115.892 201.501 115.248 200.605 114.324C199.737 113.4 199.303 112.084 199.303 110.376C199.303 108.948 199.709 107.688 200.521 106.596C201.361 105.476 202.565 104.608 204.133 103.992C205.729 103.376 207.605 103.068 209.761 103.068C211.357 103.068 212.939 103.25 214.507 103.614C216.103 103.95 217.419 104.426 218.455 105.042L216.271 109.704C214.283 108.584 212.113 108.024 209.761 108.024C208.361 108.024 207.311 108.22 206.611 108.612C205.911 109.004 205.561 109.508 205.561 110.124C205.561 110.824 205.939 111.314 206.695 111.594C207.451 111.874 208.655 112.14 210.307 112.392C212.155 112.7 213.667 113.036 214.843 113.4C216.019 113.736 217.041 114.366 217.909 115.29C218.777 116.214 219.211 117.502 219.211 119.154C219.211 120.554 218.791 121.8 217.951 122.892C217.111 123.984 215.879 124.838 214.255 125.454C212.659 126.042 210.755 126.336 208.543 126.336Z" fill="#00AF91"/>
</svg>
